<svg xmlns="http://www.w3.org/2000/svg" xmlns:xlink="http://www.w3.org/1999/xlink" width="500" zoomAndPan="magnify" viewBox="0 0 375 374.999991" height="500" preserveAspectRatio="xMidYMid meet" version="1.0"><defs><g/><clipPath id="4171f206ef"><path d="M 59 37.5 L 182 37.5 L 182 297 L 59 297 Z M 59 37.5 " clip-rule="nonzero"/></clipPath><clipPath id="37f783ce8b"><path d="M 192 37.5 L 314 37.5 L 314 297 L 192 297 Z M 192 37.5 " clip-rule="nonzero"/></clipPath></defs><rect x="-37.5" width="450" fill="#ffffff" y="-37.499999" height="449.999989" fill-opacity="1"/><rect x="-37.5" width="450" fill="#ffffff" y="-37.499999" height="449.999989" fill-opacity="1"/><g clip-path="url(#4171f206ef)"><path fill="#000000" d="M 181.015625 69.039062 C 181.015625 46.75 159.757812 37.5 148.375 37.5 C 141.539062 37.5 127.964844 42.105469 120.535156 51.992188 C 116.886719 56.847656 115.246094 62.371094 115.675781 68.207031 C 108.902344 67.21875 97.894531 66.980469 91.195312 77.734375 C 86.371094 85.476562 85.875 91.855469 86.394531 96.015625 C 79.363281 96.878906 66.820312 100.320312 61.980469 113.71875 C 58.335938 123.789062 58.972656 134.175781 62.0625 142.449219 C 62.070312 142.46875 62.070312 142.488281 62.074219 142.503906 C 62.765625 144.832031 64 147.339844 65.789062 149.78125 C 65.8125 149.816406 65.835938 149.847656 65.859375 149.882812 C 65.988281 150.054688 66.109375 150.226562 66.242188 150.398438 C 66.976562 151.417969 67.746094 152.378906 68.5625 153.234375 C 65.371094 155.828125 63.539062 159.574219 63.113281 166.445312 C 62.628906 174.164062 65.984375 183.472656 71.828125 188.265625 C 67.839844 192.335938 64.328125 198.457031 65.191406 211.328125 C 65.984375 219.257812 70.429688 227.304688 76.796875 232.332031 C 80.144531 234.976562 83.867188 236.582031 87.636719 237.171875 C 87.882812 237.25 88.136719 237.308594 88.40625 237.335938 C 88.492188 237.34375 88.597656 237.339844 88.6875 237.347656 C 88.796875 237.359375 88.902344 237.394531 89.011719 237.402344 C 89.652344 241.121094 91.714844 245.28125 94.121094 248.398438 C 98.070312 253.511719 103.136719 256.472656 108.644531 256.953125 C 110.261719 263.269531 113.886719 272.742188 124.566406 274.027344 C 125.398438 280.011719 127.464844 284.980469 130.789062 288.835938 C 134.9375 293.648438 140.84375 296.445312 147.863281 296.929688 C 148.570312 296.976562 149.28125 297 149.992188 297 C 158.386719 297 167.058594 293.664062 173.054688 288.039062 C 178.222656 283.1875 181.046875 276.933594 181.003906 270.460938 L 181.003906 131.765625 C 181.003906 131.761719 181.003906 131.757812 181.003906 131.757812 L 181.003906 69.402344 C 181.003906 69.277344 181.015625 69.164062 181.015625 69.039062 Z M 173.519531 122.699219 C 170.421875 120.898438 166.65625 119.554688 162.753906 119.03125 C 152.210938 117.625 143.238281 122.433594 138.050781 132.34375 C 132.117188 144.832031 136.808594 154.246094 140.132812 158.746094 C 144.445312 164.582031 151.023438 168.46875 156.320312 168.46875 C 156.808594 168.46875 157.285156 168.4375 157.746094 168.371094 C 159.792969 168.070312 161.210938 166.175781 160.914062 164.128906 C 160.613281 162.085938 158.710938 160.660156 156.667969 160.96875 C 154.871094 161.230469 149.796875 159.230469 146.15625 154.304688 C 143.308594 150.449219 140.765625 144.070312 144.75 135.683594 C 149.261719 127.066406 156.15625 125.859375 161.144531 126.375 C 168.132812 127.085938 172.882812 131.023438 173.519531 132.460938 L 173.519531 270.484375 C 173.554688 276.117188 170.5 280.171875 167.929688 282.585938 C 162.894531 287.3125 155.394531 289.9375 148.378906 289.464844 C 144.90625 289.226562 140.019531 288.078125 136.464844 283.953125 C 132.695312 279.582031 131.078125 272.570312 131.777344 263.851562 C 132.285156 259.851562 137.28125 251.917969 143.957031 248.582031 C 147.785156 246.671875 151.441406 246.675781 154.824219 248.59375 C 156.621094 249.621094 158.90625 248.988281 159.925781 247.191406 C 160.949219 245.398438 160.320312 243.113281 158.523438 242.09375 C 152.914062 238.90625 146.71875 238.839844 140.605469 241.894531 C 140.472656 241.960938 140.351562 242.054688 140.21875 242.125 C 138.605469 240.472656 136.183594 239.339844 133.144531 238.992188 C 128.023438 238.410156 122.378906 240.140625 121.457031 244.585938 C 121.039062 246.609375 122.339844 248.589844 124.363281 249.007812 C 126.136719 249.378906 127.882812 248.414062 128.566406 246.8125 C 129.285156 246.480469 131.125 246.15625 132.996094 246.535156 C 133.320312 246.601562 133.59375 246.679688 133.828125 246.761719 C 128.621094 251.671875 124.953125 258.1875 124.332031 263.078125 C 124.242188 264.195312 124.207031 265.269531 124.179688 266.335938 C 118.542969 264.890625 116.761719 259.175781 115.269531 252.417969 L 114.5625 249.199219 L 111.277344 249.496094 C 106.507812 249.933594 102.988281 247.207031 100.894531 244.851562 C 98.511719 242.164062 97.175781 239.136719 96.609375 237.074219 C 107.140625 235.527344 120.128906 228.980469 123.554688 211.113281 C 124.722656 210.691406 125.890625 210.1875 127.0625 209.480469 C 127.125 209.441406 127.171875 209.390625 127.230469 209.351562 C 131.515625 206.960938 135.992188 203.085938 139 198.117188 C 142.511719 192.320312 143.441406 186.085938 141.683594 180.09375 C 141.097656 178.109375 139.023438 176.976562 137.039062 177.558594 C 135.054688 178.136719 133.917969 180.214844 134.5 182.199219 C 135.664062 186.179688 135.027344 190.234375 132.59375 194.246094 C 130.164062 198.261719 126.277344 201.507812 122.855469 203.242188 C 122.769531 203.292969 122.679688 203.328125 122.589844 203.375 C 121.492188 203.910156 120.441406 204.292969 119.515625 204.476562 C 111.511719 205.996094 103.5 198.347656 103.410156 198.257812 C 101.9375 196.820312 99.570312 196.839844 98.121094 198.308594 C 96.671875 199.78125 96.695312 202.152344 98.167969 203.597656 C 98.601562 204.023438 106.175781 211.320312 115.625 212.148438 C 112.5625 223.304688 104.632812 227.53125 98.234375 229.089844 L 92.273438 229.890625 C 91.90625 229.941406 91.550781 229.945312 91.191406 229.960938 C 90.34375 229.964844 89.726562 229.933594 89.394531 229.910156 C 89.359375 229.90625 89.320312 229.90625 89.285156 229.902344 C 89.226562 229.898438 89.175781 229.890625 89.148438 229.890625 C 89.140625 229.886719 89.128906 229.890625 89.121094 229.890625 C 85.9375 229.484375 83.269531 227.910156 81.4375 226.464844 C 76.683594 222.710938 73.230469 216.476562 72.652344 210.707031 C 71.785156 197.796875 75.929688 194.351562 80.320312 190.703125 L 86.484375 185.566406 L 79.179688 183.855469 C 74.464844 182.75 70.128906 174.199219 70.582031 166.910156 C 70.960938 160.855469 72.324219 159.257812 74.925781 157.933594 C 78.800781 160.21875 83.539062 161.980469 89.253906 162.761719 C 90.570312 162.945312 91.851562 163.027344 93.101562 163.027344 C 97.40625 163.027344 101.261719 162.011719 104.636719 160.542969 C 106.347656 161.558594 109.898438 164.578125 109.6875 168.683594 C 109.367188 174.890625 105.011719 179.601562 104.90625 179.714844 C 103.480469 181.203125 103.527344 183.5625 105.011719 184.992188 C 105.738281 185.691406 106.675781 186.039062 107.609375 186.039062 C 108.589844 186.039062 109.570312 185.65625 110.304688 184.894531 C 110.566406 184.625 116.695312 178.171875 117.164062 169.070312 C 117.429688 163.832031 114.757812 159.453125 111.582031 156.503906 C 116.414062 152.925781 119.230469 149.15625 119.460938 148.832031 C 120.675781 147.164062 120.304688 144.824219 118.632812 143.609375 C 116.957031 142.394531 114.617188 142.765625 113.402344 144.4375 C 113.34375 144.523438 109.3125 149.9375 102.726562 153.171875 C 102.726562 153.171875 102.722656 153.171875 102.722656 153.171875 C 102.722656 153.171875 102.71875 153.175781 102.71875 153.175781 C 99.222656 154.894531 95.015625 156.007812 90.273438 155.351562 C 86.464844 154.828125 83.277344 153.785156 80.59375 152.46875 L 77.964844 151.007812 C 75.375 149.34375 73.414062 147.417969 71.992188 145.546875 C 67.535156 138.929688 64.925781 127.574219 69.019531 116.257812 C 73.117188 104.910156 85.402344 103.421875 89.597656 103.242188 L 100.671875 114.664062 C 98.273438 116.054688 95.40625 116.898438 91.996094 117.054688 C 89.929688 117.148438 88.332031 118.898438 88.429688 120.960938 C 88.519531 122.964844 90.175781 124.527344 92.164062 124.527344 C 92.222656 124.527344 92.28125 124.527344 92.339844 124.527344 C 99.652344 124.191406 105.492188 121.652344 109.691406 116.980469 C 117.011719 108.835938 116.386719 97.207031 116.359375 96.71875 C 116.230469 94.65625 114.464844 93.097656 112.394531 93.214844 C 110.328125 93.339844 108.757812 95.113281 108.886719 97.175781 C 108.890625 97.253906 109.171875 103.878906 105.980469 109.390625 L 94.332031 97.375 C 93.773438 95.925781 92.214844 90.25 97.546875 81.683594 C 102.328125 74.015625 110.324219 74.777344 117.441406 76.089844 C 117.894531 76.175781 118.308594 76.25 118.695312 76.316406 L 127.832031 84.15625 C 128.539062 84.765625 129.40625 85.0625 130.269531 85.0625 C 131.320312 85.0625 132.371094 84.621094 133.109375 83.757812 C 134.457031 82.191406 134.277344 79.832031 132.710938 78.484375 L 123.652344 70.707031 C 122.40625 65.488281 123.351562 60.703125 126.523438 56.484375 C 132.28125 48.824219 143.632812 44.980469 148.375 44.980469 C 155.082031 44.980469 173.472656 50.667969 173.523438 68.96875 C 173.523438 68.992188 173.519531 69.011719 173.519531 69.03125 L 173.519531 69.308594 C 173.398438 85.726562 162.726562 89.609375 161.429688 90.007812 C 159.761719 89.914062 158.332031 90.972656 157.800781 92.5625 C 157.144531 94.523438 158.203125 96.640625 160.164062 97.296875 C 163.519531 98.40625 169.023438 94.558594 169.636719 94.117188 C 170.785156 93.289062 172.144531 92.140625 173.519531 90.628906 Z M 173.519531 122.699219 " fill-opacity="1" fill-rule="nonzero"/></g><g clip-path="url(#37f783ce8b)"><path fill="#000000" d="M 311.140625 166.511719 L 311.121094 166.253906 C 310.363281 159.59375 307.832031 155.75 304.777344 153.265625 C 312.625 145.058594 316.917969 129.007812 311.390625 113.722656 C 306.550781 100.316406 294.007812 96.875 286.976562 96.015625 C 287.496094 91.855469 286.996094 85.476562 282.175781 77.734375 C 275.5 67.019531 264.539062 67.21875 257.765625 68.195312 C 258.382812 61.832031 256.761719 55.925781 252.96875 50.878906 C 246.0625 41.6875 233.625 37.5 224.996094 37.5 C 213.617188 37.5 192.355469 46.75 192.355469 69.039062 C 192.355469 69.152344 192.363281 69.25 192.367188 69.363281 L 192.367188 270.4375 C 192.324219 276.9375 195.144531 283.1875 200.316406 288.039062 C 206.3125 293.667969 214.984375 297 223.375 297 C 224.085938 297 224.796875 296.976562 225.503906 296.925781 C 238.34375 296.046875 246.851562 287.5625 248.789062 274.027344 C 259.429688 272.753906 263.078125 263.347656 264.703125 257.035156 C 270.132812 256.820312 274.945312 254.804688 278.488281 251.199219 C 282.066406 247.554688 284.175781 242.414062 284.429688 236.957031 C 298.554688 234.921875 306.992188 226.636719 308.320312 213.332031 C 309.320312 203.230469 306.902344 194.800781 301.128906 188.210938 C 306.710938 184.308594 311.65625 178.097656 311.140625 166.511719 Z M 206.566406 275.4375 C 204.660156 275.4375 203.113281 273.890625 203.113281 271.984375 C 203.113281 270.082031 204.660156 268.535156 206.566406 268.535156 C 208.472656 268.535156 210.019531 270.082031 210.019531 271.984375 C 210.019531 273.890625 208.472656 275.4375 206.566406 275.4375 Z M 204.925781 278.488281 L 204.925781 282.070312 C 203.21875 280.355469 201.425781 277.949219 200.496094 274.847656 C 201.347656 276.640625 202.960938 277.992188 204.925781 278.488281 Z M 293.3125 184.179688 L 288.332031 186.773438 L 292.644531 190.371094 C 296.78125 193.816406 302.132812 199.867188 300.871094 212.59375 C 299.792969 223.367188 293.078125 229.019531 280.34375 229.867188 L 276.449219 230.125 L 276.871094 234.003906 C 277.375 238.601562 275.980469 243.070312 273.144531 245.960938 C 271.039062 248.101562 268.230469 249.3125 264.902344 249.527344 L 263.722656 210.507812 L 274.589844 200.644531 C 275.976562 201.585938 277.648438 202.140625 279.449219 202.140625 C 284.226562 202.140625 288.117188 198.257812 288.117188 193.480469 C 288.117188 188.707031 284.226562 184.824219 279.449219 184.824219 C 274.671875 184.824219 270.785156 188.707031 270.785156 193.480469 C 270.785156 195.273438 271.332031 196.941406 272.269531 198.324219 L 260.398438 209.09375 L 261.621094 249.453125 L 258.804688 249.199219 L 258.097656 252.417969 C 256.453125 259.886719 254.433594 266.085938 247.28125 266.652344 L 247.28125 232.886719 L 242.539062 228.441406 L 242.539062 211.289062 L 252.953125 201.027344 C 254.046875 201.792969 255.371094 202.25 256.804688 202.25 C 260.515625 202.25 263.539062 199.234375 263.539062 195.523438 C 263.539062 191.816406 260.515625 188.796875 256.804688 188.796875 C 253.09375 188.796875 250.070312 191.816406 250.070312 195.523438 C 250.070312 196.613281 250.355469 197.625 250.816406 198.535156 L 239.257812 209.921875 L 239.257812 225.367188 L 233.054688 219.550781 L 233.054688 196.136719 C 235.972656 195.398438 238.148438 192.773438 238.148438 189.632812 C 238.148438 185.925781 235.125 182.90625 231.414062 182.90625 C 227.703125 182.90625 224.679688 185.925781 224.679688 189.632812 C 224.679688 192.773438 226.855469 195.398438 229.773438 196.136719 L 229.773438 220.964844 L 244 234.300781 L 244 266.941406 C 243.660156 267.078125 243.347656 267.273438 243.0625 267.503906 C 243.007812 267.550781 242.945312 267.585938 242.894531 267.632812 C 242.878906 267.644531 242.867188 267.660156 242.855469 267.675781 C 242.339844 268.15625 241.960938 268.78125 241.785156 269.492188 C 241.765625 269.570312 241.761719 269.652344 241.746094 269.730469 C 241.71875 269.886719 241.679688 270.039062 241.671875 270.203125 C 241.171875 278.550781 238.019531 284.410156 232.621094 287.347656 L 226.03125 281.269531 L 226.03125 265.152344 C 228.949219 264.414062 231.125 261.789062 231.125 258.652344 C 231.125 254.941406 228.101562 251.921875 224.390625 251.921875 C 220.679688 251.921875 217.65625 254.941406 217.65625 258.652344 C 217.65625 261.789062 219.832031 264.414062 222.75 265.152344 L 222.75 282.707031 L 229.265625 288.714844 C 227.933594 289.097656 226.515625 289.363281 224.988281 289.464844 C 219.164062 289.855469 213.015625 288.085938 208.203125 284.769531 L 208.203125 278.488281 C 211.121094 277.75 213.296875 275.125 213.296875 271.984375 C 213.296875 268.277344 210.277344 265.257812 206.5625 265.257812 C 203.089844 265.257812 200.253906 267.914062 199.902344 271.292969 C 199.886719 271.011719 199.847656 270.746094 199.851562 270.460938 L 199.851562 238.5 L 202.832031 241.730469 L 221.160156 241.730469 C 221.929688 244.769531 224.667969 247.039062 227.949219 247.039062 C 231.824219 247.039062 234.972656 243.890625 234.972656 240.019531 C 234.972656 236.152344 231.824219 233.003906 227.949219 233.003906 C 224.667969 233.003906 221.929688 235.269531 221.160156 238.3125 L 204.328125 238.3125 L 199.851562 233.460938 L 199.851562 212.761719 L 206.097656 212.761719 C 206.863281 216.128906 209.871094 218.65625 213.46875 218.65625 C 217.640625 218.65625 221.039062 215.261719 221.039062 211.09375 C 221.039062 206.917969 217.640625 203.523438 213.46875 203.523438 C 209.867188 203.523438 206.859375 206.050781 206.097656 209.421875 L 199.851562 209.421875 L 199.851562 160.355469 C 203.660156 160.332031 207.28125 160.324219 211.074219 160.324219 L 211.074219 176.863281 C 208.933594 177.347656 207.328125 179.253906 207.328125 181.539062 C 207.328125 184.183594 209.484375 186.335938 212.136719 186.335938 C 214.785156 186.335938 216.9375 184.183594 216.9375 181.539062 C 216.9375 179.253906 215.332031 177.347656 213.195312 176.863281 L 213.195312 161.046875 C 217.054688 164.925781 220.808594 168.804688 224.578125 172.707031 L 226.039062 174.21875 L 227.5625 172.746094 L 226.105469 171.234375 C 223.992188 169.046875 221.882812 166.867188 219.761719 164.6875 L 236.300781 164.6875 C 236.789062 166.824219 238.695312 168.429688 240.980469 168.429688 C 243.632812 168.429688 245.789062 166.277344 245.789062 163.628906 C 245.789062 160.980469 243.632812 158.824219 240.980469 158.824219 C 238.695312 158.824219 236.789062 160.429688 236.300781 162.566406 L 217.667969 162.566406 C 216.34375 161.214844 215.023438 159.863281 213.671875 158.515625 L 213.359375 158.203125 L 212.921875 158.203125 C 208.421875 158.203125 204.277344 158.207031 199.851562 158.234375 L 199.851562 153.03125 C 212.054688 152.929688 224.289062 152.964844 236.300781 153.140625 C 236.78125 155.285156 238.691406 156.898438 240.980469 156.898438 C 243.632812 156.898438 245.789062 154.742188 245.789062 152.09375 C 245.789062 149.445312 243.632812 147.292969 240.980469 147.292969 C 238.699219 147.292969 236.796875 148.890625 236.308594 151.019531 C 224.292969 150.847656 212.054688 150.816406 199.851562 150.910156 L 199.851562 141.757812 L 202.898438 145.058594 L 214.273438 145.058594 C 214.75 146.945312 216.449219 148.351562 218.484375 148.351562 C 220.886719 148.351562 222.839844 146.398438 222.839844 143.996094 C 222.839844 141.597656 220.886719 139.640625 218.484375 139.640625 C 216.449219 139.640625 214.75 141.050781 214.273438 142.9375 L 203.832031 142.9375 L 199.851562 138.632812 L 199.851562 126.75 L 205.117188 124.265625 L 225.832031 131.957031 L 253.480469 118.925781 C 254.191406 119.832031 255.132812 120.535156 256.246094 120.933594 C 256.925781 121.179688 257.628906 121.300781 258.332031 121.300781 C 259.226562 121.300781 260.121094 121.101562 260.957031 120.707031 C 264.027344 119.261719 265.351562 115.582031 263.902344 112.511719 C 263.199219 111.023438 261.960938 109.898438 260.410156 109.339844 C 258.863281 108.785156 257.1875 108.863281 255.699219 109.566406 C 254.207031 110.269531 253.082031 111.507812 252.527344 113.054688 C 252.125 114.167969 252.066406 115.339844 252.320312 116.464844 L 225.707031 129.007812 L 208.5625 122.644531 L 224.734375 115.019531 L 229.378906 101.890625 L 250.339844 92.011719 C 251.519531 93.511719 253.296875 94.398438 255.167969 94.398438 C 256.046875 94.398438 256.941406 94.210938 257.785156 93.8125 C 260.859375 92.363281 262.179688 88.683594 260.730469 85.613281 C 259.28125 82.542969 255.597656 81.222656 252.527344 82.671875 C 249.878906 83.917969 248.539062 86.824219 249.148438 89.570312 L 227.191406 99.917969 L 222.546875 113.046875 L 199.851562 123.742188 L 199.851562 90.625 C 201.222656 92.136719 202.582031 93.289062 203.730469 94.117188 C 204.347656 94.558594 209.828125 98.417969 213.203125 97.296875 C 215.164062 96.644531 216.222656 94.523438 215.570312 92.566406 C 215.046875 90.996094 213.585938 90.007812 212.019531 90.007812 C 211.992188 90.007812 211.964844 90.007812 211.941406 90.007812 C 210.640625 89.609375 199.960938 85.722656 199.851562 69.277344 L 199.851562 69.03125 C 199.851562 69.011719 199.847656 68.996094 199.847656 68.976562 C 199.886719 52.371094 215.003906 46.164062 222.824219 45.152344 L 220.414062 47.371094 L 220.414062 65.300781 C 217.460938 65.929688 215.238281 68.550781 215.238281 71.6875 C 215.238281 75.289062 218.171875 78.21875 221.773438 78.21875 C 225.378906 78.21875 228.3125 75.289062 228.3125 71.6875 C 228.3125 68.550781 226.089844 65.929688 223.136719 65.300781 L 223.136719 48.5625 L 226.898438 45.09375 C 233.722656 45.65625 242.296875 49.136719 246.984375 55.371094 C 250.269531 59.742188 251.164062 64.917969 249.714844 70.757812 L 245.371094 74.972656 C 243.890625 76.414062 243.855469 78.78125 245.296875 80.261719 C 246.03125 81.015625 247.003906 81.394531 247.980469 81.394531 C 248.921875 81.394531 249.863281 81.042969 250.589844 80.335938 L 254.742188 76.304688 C 255.109375 76.242188 255.5 76.171875 255.925781 76.09375 C 263.046875 74.777344 271.039062 74.019531 275.820312 81.6875 C 281 90.007812 279.679688 95.585938 279.109375 97.1875 L 275.257812 100.441406 C 273.679688 101.773438 273.480469 104.132812 274.816406 105.710938 C 275.554688 106.585938 276.613281 107.039062 277.675781 107.039062 C 278.53125 107.039062 279.386719 106.75 280.089844 106.15625 L 283.550781 103.230469 C 287.457031 103.359375 299.632812 104.6875 304.054688 115.589844 L 271.621094 115.589844 L 253.257812 134.484375 L 253.257812 153.589844 C 250.039062 154.320312 247.621094 157.191406 247.621094 160.628906 C 247.621094 164.613281 250.867188 167.859375 254.859375 167.859375 C 258.847656 167.859375 262.097656 164.613281 262.097656 160.628906 C 262.097656 157.191406 259.679688 154.320312 256.457031 153.589844 L 256.457031 135.777344 L 272.972656 118.78125 L 305.140625 118.78125 C 307.4375 127.085938 306.308594 135.203125 303.679688 141.269531 L 277.625 141.269531 L 266.988281 153.535156 L 266.988281 165.273438 C 263.765625 166.003906 261.347656 168.875 261.347656 172.308594 C 261.347656 176.296875 264.597656 179.542969 268.585938 179.542969 C 272.574219 179.542969 275.824219 176.296875 275.824219 172.308594 C 275.824219 168.875 273.40625 166.003906 270.183594 165.273438 L 270.183594 154.726562 L 279.082031 144.460938 L 302.050781 144.460938 C 300.589844 146.894531 298.890625 148.789062 297.132812 149.972656 L 286.480469 149.972656 C 284.414062 149.972656 282.734375 151.644531 282.734375 153.710938 C 282.734375 155.777344 284.414062 157.453125 286.480469 157.453125 L 297.386719 157.453125 C 300.992188 159.1875 303 161.304688 303.671875 166.972656 C 304.058594 176.601562 299.992188 180.699219 293.3125 184.179688 Z M 274.066406 193.480469 C 274.066406 190.511719 276.480469 188.101562 279.449219 188.101562 C 282.421875 188.101562 284.835938 190.511719 284.835938 193.480469 C 284.835938 196.449219 282.421875 198.863281 279.449219 198.863281 C 276.480469 198.863281 274.066406 196.449219 274.066406 193.480469 Z M 253.351562 195.523438 C 253.351562 193.621094 254.898438 192.074219 256.804688 192.074219 C 258.710938 192.074219 260.257812 193.621094 260.257812 195.523438 C 260.257812 197.429688 258.710938 198.972656 256.804688 198.972656 C 254.898438 198.972656 253.351562 197.429688 253.351562 195.523438 Z M 231.414062 193.085938 C 229.507812 193.085938 227.960938 191.539062 227.960938 189.632812 C 227.960938 187.730469 229.507812 186.183594 231.414062 186.183594 C 233.320312 186.183594 234.867188 187.730469 234.867188 189.632812 C 234.867188 191.539062 233.320312 193.085938 231.414062 193.085938 Z M 224.390625 262.101562 C 222.484375 262.101562 220.9375 260.554688 220.9375 258.652344 C 220.9375 256.746094 222.484375 255.199219 224.390625 255.199219 C 226.296875 255.199219 227.84375 256.746094 227.84375 258.652344 C 227.84375 260.554688 226.296875 262.101562 224.390625 262.101562 Z M 224.347656 240.023438 C 224.347656 238.035156 225.964844 236.421875 227.949219 236.421875 C 229.9375 236.421875 231.554688 238.035156 231.554688 240.023438 C 231.554688 242.007812 229.9375 243.621094 227.949219 243.621094 C 225.964844 243.621094 224.347656 242.007812 224.347656 240.023438 Z M 209.242188 211.09375 C 209.242188 208.761719 211.136719 206.867188 213.46875 206.867188 C 215.800781 206.867188 217.699219 208.761719 217.699219 211.09375 C 217.699219 213.421875 215.800781 215.316406 213.46875 215.316406 C 211.136719 215.316406 209.242188 213.421875 209.242188 211.09375 Z M 212.136719 178.855469 C 213.617188 178.855469 214.820312 180.058594 214.820312 181.539062 C 214.820312 183.015625 213.613281 184.21875 212.136719 184.21875 C 210.65625 184.21875 209.449219 183.015625 209.449219 181.539062 C 209.449219 180.0625 210.65625 178.855469 212.136719 178.855469 Z M 238.296875 163.628906 C 238.296875 162.148438 239.503906 160.945312 240.980469 160.945312 C 242.460938 160.945312 243.667969 162.148438 243.667969 163.628906 C 243.667969 165.105469 242.460938 166.308594 240.980469 166.308594 C 239.503906 166.308594 238.296875 165.105469 238.296875 163.628906 Z M 238.296875 152.09375 C 238.296875 150.617188 239.503906 149.414062 240.980469 149.414062 C 242.460938 149.414062 243.667969 150.617188 243.667969 152.09375 C 243.667969 153.574219 242.460938 154.777344 240.980469 154.777344 C 239.503906 154.777344 238.296875 153.574219 238.296875 152.09375 Z M 216.25 143.996094 C 216.25 142.765625 217.253906 141.765625 218.484375 141.765625 C 219.71875 141.765625 220.722656 142.765625 220.722656 143.996094 C 220.722656 145.230469 219.71875 146.230469 218.484375 146.230469 C 217.253906 146.230469 216.25 145.230469 216.25 143.996094 Z M 255.089844 113.976562 C 255.398438 113.113281 256.027344 112.417969 256.859375 112.027344 C 257.328125 111.808594 257.824219 111.695312 258.324219 111.695312 C 258.71875 111.695312 259.113281 111.761719 259.492188 111.902344 C 260.355469 112.210938 261.050781 112.839844 261.441406 113.667969 C 262.25 115.382812 261.511719 117.4375 259.796875 118.25 C 258.964844 118.636719 258.035156 118.6875 257.164062 118.375 C 256.300781 118.0625 255.605469 117.433594 255.214844 116.601562 C 254.820312 115.773438 254.777344 114.839844 255.089844 113.976562 Z M 253.6875 85.128906 C 254.160156 84.90625 254.660156 84.800781 255.152344 84.800781 C 256.441406 84.800781 257.683594 85.53125 258.269531 86.773438 C 259.078125 88.488281 258.339844 90.542969 256.625 91.351562 C 254.90625 92.160156 252.851562 91.421875 252.042969 89.707031 C 251.234375 87.992188 251.972656 85.9375 253.6875 85.128906 Z M 221.773438 67.875 C 223.878906 67.875 225.589844 69.585938 225.589844 71.6875 C 225.589844 73.789062 223.878906 75.5 221.773438 75.5 C 219.671875 75.5 217.957031 73.789062 217.957031 71.6875 C 217.957031 69.585938 219.671875 67.875 221.773438 67.875 Z M 254.855469 156.589844 C 257.082031 156.589844 258.898438 158.402344 258.898438 160.628906 C 258.898438 162.855469 257.082031 164.664062 254.855469 164.664062 C 252.628906 164.664062 250.816406 162.855469 250.816406 160.628906 C 250.816406 158.402344 252.628906 156.589844 254.855469 156.589844 Z M 268.582031 168.273438 C 270.8125 168.273438 272.625 170.085938 272.625 172.308594 C 272.625 174.535156 270.8125 176.347656 268.582031 176.347656 C 266.355469 176.347656 264.542969 174.535156 264.542969 172.308594 C 264.542969 170.085938 266.355469 168.273438 268.582031 168.273438 Z M 268.582031 168.273438 " fill-opacity="1" fill-rule="nonzero"/></g><g fill="#000000" fill-opacity="1"><g transform="translate(33.472656, 352.499977)"><g><path d="M 14.859375 -5.140625 L 16.265625 -1.140625 C 15.679688 -0.648438 14.945312 -0.269531 14.0625 0 C 13.175781 0.269531 12.175781 0.40625 11.0625 0.40625 C 8.726562 0.40625 6.953125 -0.226562 5.734375 -1.5 C 4.523438 -2.769531 3.921875 -4.613281 3.921875 -7.03125 L 3.921875 -17.265625 L 0.640625 -17.265625 L 0.640625 -21.5625 L 3.921875 -21.5625 L 3.921875 -25.765625 L 9.34375 -26.640625 L 9.34375 -21.5625 L 15.453125 -21.5625 L 15.453125 -17.265625 L 9.34375 -17.265625 L 9.34375 -7.421875 C 9.34375 -6.359375 9.5625 -5.582031 10 -5.09375 C 10.445312 -4.601562 11.09375 -4.359375 11.9375 -4.359375 C 12.894531 -4.359375 13.734375 -4.617188 14.453125 -5.140625 Z M 14.859375 -5.140625 "/></g></g></g><g fill="#000000" fill-opacity="1"><g transform="translate(50.209307, 352.499977)"><g><path d="M 3.109375 0 L 3.109375 -30.203125 L 8.515625 -30.203125 L 8.515625 -18.734375 L 8.921875 -18.65625 C 9.640625 -19.707031 10.519531 -20.519531 11.5625 -21.09375 C 12.601562 -21.664062 13.859375 -21.953125 15.328125 -21.953125 C 20.085938 -21.953125 22.46875 -19.257812 22.46875 -13.875 L 22.46875 0 L 17.046875 0 L 17.046875 -13.1875 C 17.046875 -14.65625 16.753906 -15.722656 16.171875 -16.390625 C 15.585938 -17.054688 14.675781 -17.390625 13.4375 -17.390625 C 11.925781 -17.390625 10.726562 -16.882812 9.84375 -15.875 C 8.957031 -14.863281 8.515625 -13.289062 8.515625 -11.15625 L 8.515625 0 Z M 3.109375 0 "/></g></g></g><g fill="#000000" fill-opacity="1"><g transform="translate(75.441216, 352.499977)"><g><path d="M 21.296875 -9.546875 L 7.4375 -9.546875 C 7.59375 -7.671875 8.125 -6.304688 9.03125 -5.453125 C 9.945312 -4.609375 11.195312 -4.1875 12.78125 -4.1875 C 14.007812 -4.1875 15.007812 -4.414062 15.78125 -4.875 C 16.550781 -5.332031 17.171875 -6.03125 17.640625 -6.96875 L 18.046875 -6.96875 L 21.640625 -4.671875 C 20.941406 -3.160156 19.878906 -1.9375 18.453125 -1 C 17.035156 -0.0625 15.144531 0.40625 12.78125 0.40625 C 10.550781 0.40625 8.625 -0.015625 7 -0.859375 C 5.382812 -1.703125 4.132812 -2.960938 3.25 -4.640625 C 2.375 -6.316406 1.9375 -8.359375 1.9375 -10.765625 C 1.9375 -13.210938 2.394531 -15.273438 3.3125 -16.953125 C 4.238281 -18.628906 5.488281 -19.878906 7.0625 -20.703125 C 8.644531 -21.535156 10.421875 -21.953125 12.390625 -21.953125 C 15.429688 -21.953125 17.757812 -21.144531 19.375 -19.53125 C 21 -17.914062 21.8125 -15.546875 21.8125 -12.421875 C 21.8125 -11.285156 21.773438 -10.40625 21.703125 -9.78125 Z M 16.640625 -13.046875 C 16.585938 -14.691406 16.207031 -15.882812 15.5 -16.625 C 14.789062 -17.375 13.753906 -17.75 12.390625 -17.75 C 9.648438 -17.75 8.039062 -16.179688 7.5625 -13.046875 Z M 16.640625 -13.046875 "/></g></g></g><g fill="#000000" fill-opacity="1"><g transform="translate(98.856903, 352.499977)"><g><path d="M 15.609375 0.40625 C 12.972656 0.40625 10.648438 -0.140625 8.640625 -1.234375 C 6.640625 -2.328125 5.070312 -3.96875 3.9375 -6.15625 C 2.8125 -8.351562 2.25 -11.0625 2.25 -14.28125 C 2.25 -17.5 2.8125 -20.203125 3.9375 -22.390625 C 5.070312 -24.585938 6.640625 -26.234375 8.640625 -27.328125 C 10.648438 -28.421875 12.972656 -28.96875 15.609375 -28.96875 C 18.359375 -28.96875 20.691406 -28.429688 22.609375 -27.359375 C 24.523438 -26.285156 25.894531 -24.644531 26.71875 -22.4375 L 22.59375 -19.921875 L 22.109375 -19.9375 C 21.492188 -21.425781 20.660156 -22.492188 19.609375 -23.140625 C 18.566406 -23.785156 17.234375 -24.109375 15.609375 -24.109375 C 13.234375 -24.109375 11.378906 -23.320312 10.046875 -21.75 C 8.722656 -20.175781 8.0625 -17.6875 8.0625 -14.28125 C 8.0625 -10.882812 8.722656 -8.398438 10.046875 -6.828125 C 11.378906 -5.253906 13.234375 -4.46875 15.609375 -4.46875 C 19.316406 -4.46875 21.585938 -6.273438 22.421875 -9.890625 L 22.90625 -9.890625 L 27.078125 -7.71875 C 26.296875 -5.007812 24.957031 -2.976562 23.0625 -1.625 C 21.175781 -0.269531 18.691406 0.40625 15.609375 0.40625 Z M 15.609375 0.40625 "/></g></g></g><g fill="#000000" fill-opacity="1"><g transform="translate(126.861978, 352.499977)"><g><path d="M 12.515625 0.40625 C 10.410156 0.40625 8.5625 -0.0234375 6.96875 -0.890625 C 5.375 -1.753906 4.132812 -3.019531 3.25 -4.6875 C 2.375 -6.363281 1.9375 -8.390625 1.9375 -10.765625 C 1.9375 -13.128906 2.375 -15.148438 3.25 -16.828125 C 4.132812 -18.515625 5.375 -19.789062 6.96875 -20.65625 C 8.5625 -21.519531 10.410156 -21.953125 12.515625 -21.953125 C 14.628906 -21.953125 16.484375 -21.519531 18.078125 -20.65625 C 19.671875 -19.789062 20.910156 -18.515625 21.796875 -16.828125 C 22.679688 -15.148438 23.125 -13.128906 23.125 -10.765625 C 23.125 -8.390625 22.679688 -6.363281 21.796875 -4.6875 C 20.910156 -3.019531 19.671875 -1.753906 18.078125 -0.890625 C 16.484375 -0.0234375 14.628906 0.40625 12.515625 0.40625 Z M 12.515625 -4.1875 C 15.867188 -4.1875 17.546875 -6.378906 17.546875 -10.765625 C 17.546875 -13.046875 17.113281 -14.710938 16.25 -15.765625 C 15.394531 -16.828125 14.148438 -17.359375 12.515625 -17.359375 C 9.171875 -17.359375 7.5 -15.160156 7.5 -10.765625 C 7.5 -6.378906 9.171875 -4.1875 12.515625 -4.1875 Z M 12.515625 -4.1875 "/></g></g></g><g fill="#000000" fill-opacity="1"><g transform="translate(151.898593, 352.499977)"><g><path d="M 3.109375 0 L 3.109375 -21.546875 L 8.296875 -21.546875 L 8.296875 -18.375 L 8.71875 -18.28125 C 10.050781 -20.726562 12.222656 -21.953125 15.234375 -21.953125 C 17.722656 -21.953125 19.550781 -21.273438 20.71875 -19.921875 C 21.882812 -18.566406 22.46875 -16.59375 22.46875 -14 L 22.46875 0 L 17.046875 0 L 17.046875 -13.34375 C 17.046875 -14.769531 16.757812 -15.800781 16.1875 -16.4375 C 15.613281 -17.070312 14.695312 -17.390625 13.4375 -17.390625 C 11.882812 -17.390625 10.675781 -16.882812 9.8125 -15.875 C 8.945312 -14.875 8.515625 -13.300781 8.515625 -11.15625 L 8.515625 0 Z M 3.109375 0 "/></g></g></g><g fill="#000000" fill-opacity="1"><g transform="translate(177.130503, 352.499977)"><g><path d="M 10.078125 0.40625 C 8.609375 0.40625 7.257812 0.234375 6.03125 -0.109375 C 4.8125 -0.453125 3.769531 -0.925781 2.90625 -1.53125 C 2.039062 -2.132812 1.398438 -2.828125 0.984375 -3.609375 L 3.984375 -6.859375 L 4.390625 -6.859375 C 5.109375 -5.890625 5.957031 -5.164062 6.9375 -4.6875 C 7.914062 -4.207031 8.976562 -3.96875 10.125 -3.96875 C 11.175781 -3.96875 11.96875 -4.15625 12.5 -4.53125 C 13.03125 -4.90625 13.296875 -5.445312 13.296875 -6.15625 C 13.296875 -6.695312 13.101562 -7.15625 12.71875 -7.53125 C 12.34375 -7.90625 11.722656 -8.195312 10.859375 -8.40625 L 8.015625 -9.078125 C 5.878906 -9.585938 4.316406 -10.363281 3.328125 -11.40625 C 2.347656 -12.457031 1.859375 -13.789062 1.859375 -15.40625 C 1.859375 -16.75 2.195312 -17.914062 2.875 -18.90625 C 3.5625 -19.894531 4.523438 -20.648438 5.765625 -21.171875 C 7.015625 -21.691406 8.46875 -21.953125 10.125 -21.953125 C 12.0625 -21.953125 13.664062 -21.671875 14.9375 -21.109375 C 16.21875 -20.554688 17.21875 -19.8125 17.9375 -18.875 L 15.046875 -15.75 L 14.65625 -15.75 C 14.050781 -16.425781 13.375 -16.921875 12.625 -17.234375 C 11.875 -17.546875 11.039062 -17.703125 10.125 -17.703125 C 7.988281 -17.703125 6.921875 -17.035156 6.921875 -15.703125 C 6.921875 -15.140625 7.117188 -14.679688 7.515625 -14.328125 C 7.910156 -13.984375 8.609375 -13.703125 9.609375 -13.484375 L 12.265625 -12.890625 C 14.453125 -12.421875 16.050781 -11.664062 17.0625 -10.625 C 18.070312 -9.59375 18.578125 -8.207031 18.578125 -6.46875 C 18.578125 -5.101562 18.238281 -3.898438 17.5625 -2.859375 C 16.882812 -1.816406 15.90625 -1.007812 14.625 -0.4375 C 13.351562 0.125 11.835938 0.40625 10.078125 0.40625 Z M 10.078125 0.40625 "/></g></g></g><g fill="#000000" fill-opacity="1"><g transform="translate(196.991848, 352.499977)"><g><path d="M 12.5625 0.40625 C 10.476562 0.40625 8.632812 -0.0234375 7.03125 -0.890625 C 5.425781 -1.753906 4.175781 -3.023438 3.28125 -4.703125 C 2.382812 -6.390625 1.9375 -8.410156 1.9375 -10.765625 C 1.9375 -13.128906 2.382812 -15.148438 3.28125 -16.828125 C 4.175781 -18.515625 5.414062 -19.789062 7 -20.65625 C 8.59375 -21.519531 10.414062 -21.953125 12.46875 -21.953125 C 17.007812 -21.953125 19.914062 -20.304688 21.1875 -17.015625 L 17.484375 -14.359375 L 17.078125 -14.359375 C 16.628906 -15.367188 16.050781 -16.117188 15.34375 -16.609375 C 14.632812 -17.109375 13.675781 -17.359375 12.46875 -17.359375 C 10.90625 -17.359375 9.6875 -16.816406 8.8125 -15.734375 C 7.9375 -14.660156 7.5 -13.003906 7.5 -10.765625 C 7.5 -8.546875 7.941406 -6.894531 8.828125 -5.8125 C 9.710938 -4.726562 10.957031 -4.1875 12.5625 -4.1875 C 13.726562 -4.1875 14.71875 -4.5 15.53125 -5.125 C 16.351562 -5.757812 16.9375 -6.671875 17.28125 -7.859375 L 17.703125 -7.890625 L 21.546875 -5.78125 C 20.992188 -3.957031 19.976562 -2.46875 18.5 -1.3125 C 17.03125 -0.164062 15.050781 0.40625 12.5625 0.40625 Z M 12.5625 0.40625 "/></g></g></g><g fill="#000000" fill-opacity="1"><g transform="translate(219.196715, 352.499977)"><g><path d="M 5.796875 -24.125 C 4.828125 -24.125 4.035156 -24.421875 3.421875 -25.015625 C 2.804688 -25.609375 2.5 -26.375 2.5 -27.3125 C 2.5 -28.226562 2.804688 -28.984375 3.421875 -29.578125 C 4.035156 -30.171875 4.828125 -30.46875 5.796875 -30.46875 C 6.453125 -30.46875 7.03125 -30.332031 7.53125 -30.0625 C 8.039062 -29.789062 8.4375 -29.414062 8.71875 -28.9375 C 9 -28.457031 9.140625 -27.914062 9.140625 -27.3125 C 9.140625 -26.695312 9 -26.144531 8.71875 -25.65625 C 8.4375 -25.175781 8.039062 -24.800781 7.53125 -24.53125 C 7.03125 -24.257812 6.453125 -24.125 5.796875 -24.125 Z M 3.109375 0 L 3.109375 -21.546875 L 8.515625 -21.546875 L 8.515625 0 Z M 3.109375 0 "/></g></g></g><g fill="#000000" fill-opacity="1"><g transform="translate(230.797144, 352.499977)"><g><path d="M 12.515625 0.40625 C 10.410156 0.40625 8.5625 -0.0234375 6.96875 -0.890625 C 5.375 -1.753906 4.132812 -3.019531 3.25 -4.6875 C 2.375 -6.363281 1.9375 -8.390625 1.9375 -10.765625 C 1.9375 -13.128906 2.375 -15.148438 3.25 -16.828125 C 4.132812 -18.515625 5.375 -19.789062 6.96875 -20.65625 C 8.5625 -21.519531 10.410156 -21.953125 12.515625 -21.953125 C 14.628906 -21.953125 16.484375 -21.519531 18.078125 -20.65625 C 19.671875 -19.789062 20.910156 -18.515625 21.796875 -16.828125 C 22.679688 -15.148438 23.125 -13.128906 23.125 -10.765625 C 23.125 -8.390625 22.679688 -6.363281 21.796875 -4.6875 C 20.910156 -3.019531 19.671875 -1.753906 18.078125 -0.890625 C 16.484375 -0.0234375 14.628906 0.40625 12.515625 0.40625 Z M 12.515625 -4.1875 C 15.867188 -4.1875 17.546875 -6.378906 17.546875 -10.765625 C 17.546875 -13.046875 17.113281 -14.710938 16.25 -15.765625 C 15.394531 -16.828125 14.148438 -17.359375 12.515625 -17.359375 C 9.171875 -17.359375 7.5 -15.160156 7.5 -10.765625 C 7.5 -6.378906 9.171875 -4.1875 12.515625 -4.1875 Z M 12.515625 -4.1875 "/></g></g></g><g fill="#000000" fill-opacity="1"><g transform="translate(255.833771, 352.499977)"><g><path d="M 9.859375 0.40625 C 7.441406 0.40625 5.65625 -0.253906 4.5 -1.578125 C 3.351562 -2.898438 2.78125 -4.796875 2.78125 -7.265625 L 2.78125 -21.546875 L 8.1875 -21.546875 L 8.1875 -7.953125 C 8.1875 -6.640625 8.46875 -5.675781 9.03125 -5.0625 C 9.601562 -4.457031 10.476562 -4.15625 11.65625 -4.15625 C 13.15625 -4.15625 14.320312 -4.644531 15.15625 -5.625 C 15.988281 -6.613281 16.40625 -8.164062 16.40625 -10.28125 L 16.40625 -21.546875 L 21.8125 -21.546875 L 21.8125 0 L 16.625 0 L 16.625 -3.171875 L 16.21875 -3.265625 C 15.519531 -2.023438 14.671875 -1.101562 13.671875 -0.5 C 12.679688 0.101562 11.410156 0.40625 9.859375 0.40625 Z M 9.859375 0.40625 "/></g></g></g><g fill="#000000" fill-opacity="1"><g transform="translate(280.753211, 352.499977)"><g><path d="M 10.078125 0.40625 C 8.609375 0.40625 7.257812 0.234375 6.03125 -0.109375 C 4.8125 -0.453125 3.769531 -0.925781 2.90625 -1.53125 C 2.039062 -2.132812 1.398438 -2.828125 0.984375 -3.609375 L 3.984375 -6.859375 L 4.390625 -6.859375 C 5.109375 -5.890625 5.957031 -5.164062 6.9375 -4.6875 C 7.914062 -4.207031 8.976562 -3.96875 10.125 -3.96875 C 11.175781 -3.96875 11.96875 -4.15625 12.5 -4.53125 C 13.03125 -4.90625 13.296875 -5.445312 13.296875 -6.15625 C 13.296875 -6.695312 13.101562 -7.15625 12.71875 -7.53125 C 12.34375 -7.90625 11.722656 -8.195312 10.859375 -8.40625 L 8.015625 -9.078125 C 5.878906 -9.585938 4.316406 -10.363281 3.328125 -11.40625 C 2.347656 -12.457031 1.859375 -13.789062 1.859375 -15.40625 C 1.859375 -16.75 2.195312 -17.914062 2.875 -18.90625 C 3.5625 -19.894531 4.523438 -20.648438 5.765625 -21.171875 C 7.015625 -21.691406 8.46875 -21.953125 10.125 -21.953125 C 12.0625 -21.953125 13.664062 -21.671875 14.9375 -21.109375 C 16.21875 -20.554688 17.21875 -19.8125 17.9375 -18.875 L 15.046875 -15.75 L 14.65625 -15.75 C 14.050781 -16.425781 13.375 -16.921875 12.625 -17.234375 C 11.875 -17.546875 11.039062 -17.703125 10.125 -17.703125 C 7.988281 -17.703125 6.921875 -17.035156 6.921875 -15.703125 C 6.921875 -15.140625 7.117188 -14.679688 7.515625 -14.328125 C 7.910156 -13.984375 8.609375 -13.703125 9.609375 -13.484375 L 12.265625 -12.890625 C 14.453125 -12.421875 16.050781 -11.664062 17.0625 -10.625 C 18.070312 -9.59375 18.578125 -8.207031 18.578125 -6.46875 C 18.578125 -5.101562 18.238281 -3.898438 17.5625 -2.859375 C 16.882812 -1.816406 15.90625 -1.007812 14.625 -0.4375 C 13.351562 0.125 11.835938 0.40625 10.078125 0.40625 Z M 10.078125 0.40625 "/></g></g></g><g fill="#000000" fill-opacity="1"><g transform="translate(300.614546, 352.499977)"><g><path d="M 27.40625 0 L 21.46875 0 L 19.3125 -6.578125 L 8.375 -6.578125 L 6.234375 0 L 0.4375 0 L 10.296875 -28.5625 L 17.546875 -28.5625 Z M 13.578125 -22.59375 L 9.90625 -11.328125 L 17.75 -11.328125 L 14.0625 -22.59375 Z M 13.578125 -22.59375 "/></g></g></g><g fill="#000000" fill-opacity="1"><g transform="translate(328.443874, 352.499977)"><g><path d="M 9.359375 0 L 3.71875 0 L 3.71875 -28.5625 L 9.359375 -28.5625 Z M 9.359375 0 "/></g></g></g></svg>